<svg width="140" height="32" viewBox="0 0 140 32" fill="none" xmlns="http://www.w3.org/2000/svg">
<g clip-path="url(#clip0_7_6)">
<path d="M25.4205 4.72727V28H21.6705L10.7045 12.1477H10.5114V28H6.29545V4.72727H10.0682L21.0227 20.5909H21.2273V4.72727H25.4205ZM39.6774 20.6591V10.5455H43.791V28H39.8024V24.8977H39.6206C39.2266 25.875 38.5789 26.6742 37.6774 27.2955C36.7834 27.9167 35.6812 28.2273 34.3706 28.2273C33.2266 28.2273 32.2153 27.9735 31.3365 27.4659C30.4653 26.9508 29.7834 26.2045 29.291 25.2273C28.7986 24.2424 28.5524 23.053 28.5524 21.6591V10.5455H32.666V21.0227C32.666 22.1288 32.9691 23.0076 33.5751 23.6591C34.1812 24.3106 34.9766 24.6364 35.9615 24.6364C36.5675 24.6364 37.1547 24.4886 37.7228 24.1932C38.291 23.8977 38.7569 23.4583 39.1206 22.875C39.4918 22.2841 39.6774 21.5455 39.6774 20.6591ZM46.7411 28V10.5455H50.7298V13.4545H50.9116C51.2298 12.447 51.7752 11.6705 52.548 11.125C53.3283 10.572 54.2184 10.2955 55.2184 10.2955C55.4457 10.2955 55.6995 10.3068 55.9798 10.3295C56.2677 10.3447 56.5063 10.3712 56.6957 10.4091V14.1932C56.5214 14.1326 56.2449 14.0795 55.8661 14.0341C55.4949 13.9811 55.1351 13.9545 54.7866 13.9545C54.0366 13.9545 53.3623 14.1174 52.7639 14.4432C52.173 14.7614 51.707 15.2045 51.3661 15.7727C51.0252 16.3409 50.8548 16.9962 50.8548 17.7386V28H46.7411ZM71.9441 15.1591L68.1941 15.5682C68.088 15.1894 67.9024 14.8333 67.6373 14.5C67.3797 14.1667 67.0312 13.8977 66.5918 13.6932C66.1524 13.4886 65.6145 13.3864 64.9782 13.3864C64.1221 13.3864 63.4024 13.572 62.8191 13.9432C62.2433 14.3144 61.9592 14.7955 61.9668 15.3864C61.9592 15.8939 62.1448 16.3068 62.5236 16.625C62.91 16.9432 63.5464 17.2045 64.4327 17.4091L67.41 18.0455C69.0615 18.4015 70.2888 18.9659 71.0918 19.7386C71.9024 20.5114 72.3115 21.5227 72.3191 22.7727C72.3115 23.8712 71.9895 24.8409 71.3532 25.6818C70.7244 26.5152 69.8494 27.1667 68.7282 27.6364C67.607 28.1061 66.3191 28.3409 64.8645 28.3409C62.7282 28.3409 61.0085 27.8939 59.7055 27C58.4024 26.0985 57.6259 24.8447 57.3759 23.2386L61.3873 22.8523C61.5691 23.6402 61.9555 24.2348 62.5464 24.6364C63.1373 25.0379 63.9062 25.2386 64.8532 25.2386C65.8305 25.2386 66.6145 25.0379 67.2055 24.6364C67.8039 24.2348 68.1032 23.7386 68.1032 23.1477C68.1032 22.6477 67.91 22.2348 67.5236 21.9091C67.1448 21.5833 66.5539 21.3333 65.7509 21.1591L62.7736 20.5341C61.0994 20.1856 59.8608 19.5985 59.0577 18.7727C58.2547 17.9394 57.857 16.8864 57.8645 15.6136C57.857 14.5379 58.1486 13.6061 58.7395 12.8182C59.338 12.0227 60.1676 11.4091 61.2282 10.9773C62.2964 10.5379 63.5274 10.3182 64.9214 10.3182C66.9668 10.3182 68.5767 10.7538 69.7509 11.625C70.9327 12.4962 71.6638 13.6742 71.9441 15.1591ZM82.1584 28.3409C80.4084 28.3409 78.897 27.9773 77.6243 27.25C76.3592 26.5152 75.3857 25.4773 74.7039 24.1364C74.022 22.7879 73.6811 21.2008 73.6811 19.375C73.6811 17.5795 74.022 16.0038 74.7039 14.6477C75.3933 13.2841 76.3554 12.2235 77.5902 11.4659C78.8251 10.7008 80.2758 10.3182 81.9425 10.3182C83.0183 10.3182 84.0334 10.4924 84.988 10.8409C85.9501 11.1818 86.7986 11.7121 87.5334 12.4318C88.2758 13.1515 88.8592 14.0682 89.2834 15.1818C89.7076 16.2879 89.9198 17.6061 89.9198 19.1364V20.3977H75.613V17.625H85.9766C85.969 16.8371 85.7986 16.1364 85.4652 15.5227C85.1319 14.9015 84.666 14.4129 84.0675 14.0568C83.4766 13.7008 82.7872 13.5227 81.9993 13.5227C81.1584 13.5227 80.4198 13.7273 79.7834 14.1364C79.147 14.5379 78.6508 15.0682 78.2948 15.7273C77.9463 16.3788 77.7683 17.0947 77.7607 17.875V20.2955C77.7607 21.3106 77.9463 22.1818 78.3175 22.9091C78.6887 23.6288 79.2076 24.1818 79.8743 24.5682C80.541 24.947 81.3213 25.1364 82.2152 25.1364C82.8137 25.1364 83.3554 25.053 83.8402 24.8864C84.3251 24.7121 84.7455 24.4583 85.1016 24.125C85.4576 23.7917 85.7266 23.3788 85.9084 22.8864L89.7493 23.3182C89.5069 24.3333 89.0448 25.2197 88.363 25.9773C87.6887 26.7273 86.8251 27.3106 85.772 27.7273C84.719 28.1364 83.5145 28.3409 82.1584 28.3409ZM92.3017 4.72727H97.4608L104.37 21.5909H104.643L111.552 4.72727H116.711V28H112.665V12.0114H112.449L106.018 27.9318H102.995L96.5631 11.9773H96.3472V28H92.3017V4.72727ZM127.567 28.3409C125.817 28.3409 124.306 27.9773 123.033 27.25C121.768 26.5152 120.794 25.4773 120.113 24.1364C119.431 22.7879 119.09 21.2008 119.09 19.375C119.09 17.5795 119.431 16.0038 120.113 14.6477C120.802 13.2841 121.764 12.2235 122.999 11.4659C124.234 10.7008 125.685 10.3182 127.351 10.3182C128.427 10.3182 129.442 10.4924 130.397 10.8409C131.359 11.1818 132.207 11.7121 132.942 12.4318C133.685 13.1515 134.268 14.0682 134.692 15.1818C135.116 16.2879 135.329 17.6061 135.329 19.1364V20.3977H121.022V17.625H131.385C131.378 16.8371 131.207 16.1364 130.874 15.5227C130.541 14.9015 130.075 14.4129 129.476 14.0568C128.885 13.7008 128.196 13.5227 127.408 13.5227C126.567 13.5227 125.829 13.7273 125.192 14.1364C124.556 14.5379 124.06 15.0682 123.704 15.7273C123.355 16.3788 123.177 17.0947 123.169 17.875V20.2955C123.169 21.3106 123.355 22.1818 123.726 22.9091C124.097 23.6288 124.616 24.1818 125.283 24.5682C125.95 24.947 126.73 25.1364 127.624 25.1364C128.222 25.1364 128.764 25.053 129.249 24.8864C129.734 24.7121 130.154 24.4583 130.51 24.125C130.866 23.7917 131.135 23.3788 131.317 22.8864L135.158 23.3182C134.916 24.3333 134.454 25.2197 133.772 25.9773C133.097 26.7273 132.234 27.3106 131.181 27.7273C130.128 28.1364 128.923 28.3409 127.567 28.3409Z" fill="#3A5F8A"/>
</g>
<defs>
<clipPath id="clip0_7_6">
<rect width="140" height="32" fill="white"/>
</clipPath>
</defs>
</svg>
