<svg width="140" height="32" viewBox="0 0 140 32" fill="none" xmlns="http://www.w3.org/2000/svg">
<g clip-path="url(#clip0_7_6)">
<path d="M24.4205 4.72727V28H20.6705L9.70455 12.1477H9.51136V28H5.29545V4.72727H9.06818L20.0227 20.5909H20.2273V4.72727H24.4205ZM38.6774 20.6591V10.5455H42.791V28H38.8024V24.8977H38.6206C38.2266 25.875 37.5789 26.6742 36.6774 27.2955C35.7834 27.9167 34.6812 28.2273 33.3706 28.2273C32.2266 28.2273 31.2153 27.9735 30.3365 27.4659C29.4653 26.9508 28.7834 26.2045 28.291 25.2273C27.7986 24.2424 27.5524 23.053 27.5524 21.6591V10.5455H31.666V21.0227C31.666 22.1288 31.9691 23.0076 32.5751 23.6591C33.1812 24.3106 33.9766 24.6364 34.9615 24.6364C35.5675 24.6364 36.1547 24.4886 36.7228 24.1932C37.291 23.8977 37.7569 23.4583 38.1206 22.875C38.4918 22.2841 38.6774 21.5455 38.6774 20.6591ZM45.7411 28V10.5455H49.7298V13.4545H49.9116C50.2298 12.447 50.7752 11.6705 51.548 11.125C52.3283 10.572 53.2184 10.2955 54.2184 10.2955C54.4457 10.2955 54.6995 10.3068 54.9798 10.3295C55.2677 10.3447 55.5063 10.3712 55.6957 10.4091V14.1932C55.5214 14.1326 55.2449 14.0795 54.8661 14.0341C54.4949 13.9811 54.1351 13.9545 53.7866 13.9545C53.0366 13.9545 52.3623 14.1174 51.7639 14.4432C51.173 14.7614 50.707 15.2045 50.3661 15.7727C50.0252 16.3409 49.8548 16.9962 49.8548 17.7386V28H45.7411ZM70.9441 15.1591L67.1941 15.5682C67.088 15.1894 66.9024 14.8333 66.6373 14.5C66.3797 14.1667 66.0312 13.8977 65.5918 13.6932C65.1524 13.4886 64.6145 13.3864 63.9782 13.3864C63.1221 13.3864 62.4024 13.572 61.8191 13.9432C61.2433 14.3144 60.9592 14.7955 60.9668 15.3864C60.9592 15.8939 61.1448 16.3068 61.5236 16.625C61.91 16.9432 62.5464 17.2045 63.4327 17.4091L66.41 18.0455C68.0615 18.4015 69.2888 18.9659 70.0918 19.7386C70.9024 20.5114 71.3115 21.5227 71.3191 22.7727C71.3115 23.8712 70.9895 24.8409 70.3532 25.6818C69.7244 26.5152 68.8494 27.1667 67.7282 27.6364C66.607 28.1061 65.3191 28.3409 63.8645 28.3409C61.7282 28.3409 60.0085 27.8939 58.7055 27C57.4024 26.0985 56.6259 24.8447 56.3759 23.2386L60.3873 22.8523C60.5691 23.6402 60.9555 24.2348 61.5464 24.6364C62.1373 25.0379 62.9062 25.2386 63.8532 25.2386C64.8305 25.2386 65.6145 25.0379 66.2055 24.6364C66.8039 24.2348 67.1032 23.7386 67.1032 23.1477C67.1032 22.6477 66.91 22.2348 66.5236 21.9091C66.1448 21.5833 65.5539 21.3333 64.7509 21.1591L61.7736 20.5341C60.0994 20.1856 58.8608 19.5985 58.0577 18.7727C57.2547 17.9394 56.857 16.8864 56.8645 15.6136C56.857 14.5379 57.1486 13.6061 57.7395 12.8182C58.338 12.0227 59.1676 11.4091 60.2282 10.9773C61.2964 10.5379 62.5274 10.3182 63.9214 10.3182C65.9668 10.3182 67.5767 10.7538 68.7509 11.625C69.9327 12.4962 70.6638 13.6742 70.9441 15.1591ZM81.1584 28.3409C79.4084 28.3409 77.897 27.9773 76.6243 27.25C75.3592 26.5152 74.3857 25.4773 73.7039 24.1364C73.022 22.7879 72.6811 21.2008 72.6811 19.375C72.6811 17.5795 73.022 16.0038 73.7039 14.6477C74.3933 13.2841 75.3554 12.2235 76.5902 11.4659C77.8251 10.7008 79.2758 10.3182 80.9425 10.3182C82.0183 10.3182 83.0334 10.4924 83.988 10.8409C84.9501 11.1818 85.7986 11.7121 86.5334 12.4318C87.2758 13.1515 87.8592 14.0682 88.2834 15.1818C88.7076 16.2879 88.9198 17.6061 88.9198 19.1364V20.3977H74.613V17.625H84.9766C84.969 16.8371 84.7986 16.1364 84.4652 15.5227C84.1319 14.9015 83.666 14.4129 83.0675 14.0568C82.4766 13.7008 81.7872 13.5227 80.9993 13.5227C80.1584 13.5227 79.4198 13.7273 78.7834 14.1364C78.147 14.5379 77.6508 15.0682 77.2948 15.7273C76.9463 16.3788 76.7683 17.0947 76.7607 17.875V20.2955C76.7607 21.3106 76.9463 22.1818 77.3175 22.9091C77.6887 23.6288 78.2076 24.1818 78.8743 24.5682C79.541 24.947 80.3213 25.1364 81.2152 25.1364C81.8137 25.1364 82.3554 25.053 82.8402 24.8864C83.3251 24.7121 83.7455 24.4583 84.1016 24.125C84.4576 23.7917 84.7266 23.3788 84.9084 22.8864L88.7493 23.3182C88.5069 24.3333 88.0448 25.2197 87.363 25.9773C86.6887 26.7273 85.8251 27.3106 84.772 27.7273C83.719 28.1364 82.5145 28.3409 81.1584 28.3409ZM91.3017 4.72727H96.4608L103.37 21.5909H103.643L110.552 4.72727H115.711V28H111.665V12.0114H111.449L105.018 27.9318H101.995L95.5631 11.9773H95.3472V28H91.3017V4.72727ZM126.567 28.3409C124.817 28.3409 123.306 27.9773 122.033 27.25C120.768 26.5152 119.794 25.4773 119.113 24.1364C118.431 22.7879 118.09 21.2008 118.09 19.375C118.09 17.5795 118.431 16.0038 119.113 14.6477C119.802 13.2841 120.764 12.2235 121.999 11.4659C123.234 10.7008 124.685 10.3182 126.351 10.3182C127.427 10.3182 128.442 10.4924 129.397 10.8409C130.359 11.1818 131.207 11.7121 131.942 12.4318C132.685 13.1515 133.268 14.0682 133.692 15.1818C134.116 16.2879 134.329 17.6061 134.329 19.1364V20.3977H120.022V17.625H130.385C130.378 16.8371 130.207 16.1364 129.874 15.5227C129.541 14.9015 129.075 14.4129 128.476 14.0568C127.885 13.7008 127.196 13.5227 126.408 13.5227C125.567 13.5227 124.829 13.7273 124.192 14.1364C123.556 14.5379 123.06 15.0682 122.704 15.7273C122.355 16.3788 122.177 17.0947 122.169 17.875V20.2955C122.169 21.3106 122.355 22.1818 122.726 22.9091C123.097 23.6288 123.616 24.1818 124.283 24.5682C124.95 24.947 125.73 25.1364 126.624 25.1364C127.222 25.1364 127.764 25.053 128.249 24.8864C128.734 24.7121 129.154 24.4583 129.51 24.125C129.866 23.7917 130.135 23.3788 130.317 22.8864L134.158 23.3182C133.916 24.3333 133.454 25.2197 132.772 25.9773C132.097 26.7273 131.234 27.3106 130.181 27.7273C129.128 28.1364 127.923 28.3409 126.567 28.3409Z" fill="#3A5F8A"/>
</g>
<defs>
<clipPath id="clip0_7_6">
<rect width="140" height="32" fill="white"/>
</clipPath>
</defs>
</svg>
