<svg width="130" height="24" viewBox="0 0 130 24" fill="none" xmlns="http://www.w3.org/2000/svg">
<path d="M19.125 -2.28882e-05V23.2727H15.375L4.40909 7.42043H4.21591V23.2727H4.76837e-07V-2.28882e-05H3.77273L14.7273 15.8636H14.9318V-2.28882e-05H19.125ZM33.3819 15.9318V5.81816H37.4956V23.2727H33.5069V20.1704H33.3251C32.9312 21.1477 32.2834 21.9469 31.3819 22.5682C30.488 23.1894 29.3857 23.5 28.0751 23.5C26.9312 23.5 25.9198 23.2462 25.041 22.7386C24.1698 22.2235 23.488 21.4773 22.9956 20.5C22.5031 19.5151 22.2569 18.3257 22.2569 16.9318V5.81816H26.3706V16.2954C26.3706 17.4015 26.6736 18.2803 27.2797 18.9318C27.8857 19.5833 28.6812 19.9091 29.666 19.9091C30.2721 19.9091 30.8592 19.7613 31.4274 19.4659C31.9956 19.1704 32.4615 18.731 32.8251 18.1477C33.1963 17.5568 33.3819 16.8182 33.3819 15.9318ZM40.4457 23.2727V5.81816H44.4343V8.72725H44.6161C44.9343 7.71967 45.4798 6.94316 46.2525 6.39771C47.0328 5.84467 47.923 5.56816 48.923 5.56816C49.1502 5.56816 49.404 5.57952 49.6843 5.60225C49.9722 5.6174 50.2108 5.64392 50.4002 5.6818V9.46589C50.226 9.40528 49.9495 9.35225 49.5707 9.3068C49.1995 9.25377 48.8396 9.22725 48.4911 9.22725C47.7411 9.22725 47.0669 9.39013 46.4684 9.71589C45.8775 10.0341 45.4116 10.4773 45.0707 11.0454C44.7298 11.6136 44.5593 12.2689 44.5593 13.0113V23.2727H40.4457ZM65.6486 10.4318L61.8986 10.8409C61.7926 10.4621 61.607 10.106 61.3418 9.77271C61.0842 9.43937 60.7358 9.17043 60.2964 8.96589C59.857 8.76134 59.3191 8.65907 58.6827 8.65907C57.8267 8.65907 57.107 8.84467 56.5236 9.21589C55.9479 9.5871 55.6638 10.0682 55.6714 10.6591C55.6638 11.1666 55.8494 11.5795 56.2282 11.8977C56.6145 12.2159 57.2509 12.4773 58.1373 12.6818L61.1145 13.3182C62.7661 13.6742 63.9933 14.2386 64.7964 15.0113C65.607 15.7841 66.0161 16.7954 66.0236 18.0454C66.0161 19.1439 65.6941 20.1136 65.0577 20.9545C64.4289 21.7879 63.5539 22.4394 62.4327 22.9091C61.3115 23.3788 60.0236 23.6136 58.5691 23.6136C56.4327 23.6136 54.713 23.1666 53.41 22.2727C52.107 21.3712 51.3305 20.1174 51.0805 18.5113L55.0918 18.125C55.2736 18.9129 55.66 19.5076 56.2509 19.9091C56.8418 20.3106 57.6108 20.5113 58.5577 20.5113C59.535 20.5113 60.3191 20.3106 60.91 19.9091C61.5085 19.5076 61.8077 19.0113 61.8077 18.4204C61.8077 17.9204 61.6145 17.5076 61.2282 17.1818C60.8494 16.856 60.2585 16.606 59.4555 16.4318L56.4782 15.8068C54.8039 15.4583 53.5653 14.8712 52.7623 14.0454C51.9592 13.2121 51.5615 12.1591 51.5691 10.8863C51.5615 9.81058 51.8532 8.87877 52.4441 8.09089C53.0426 7.29543 53.8721 6.6818 54.9327 6.24998C56.0009 5.81058 57.232 5.59089 58.6259 5.59089C60.6714 5.59089 62.2812 6.02649 63.4555 6.89771C64.6373 7.76892 65.3683 8.94695 65.6486 10.4318ZM75.863 23.6136C74.113 23.6136 72.6016 23.25 71.3289 22.5227C70.0637 21.7879 69.0902 20.75 68.4084 19.4091C67.7266 18.0606 67.3857 16.4735 67.3857 14.6477C67.3857 12.8523 67.7266 11.2765 68.4084 9.92043C69.0978 8.5568 70.0599 7.49619 71.2948 6.73861C72.5296 5.97346 73.9804 5.59089 75.647 5.59089C76.7228 5.59089 77.738 5.76513 78.6925 6.11361C79.6546 6.45452 80.5031 6.98483 81.238 7.70452C81.9804 8.42422 82.5637 9.34089 82.988 10.4545C83.4122 11.5606 83.6243 12.8788 83.6243 14.4091V15.6704H69.3175V12.8977H79.6811C79.6736 12.1098 79.5031 11.4091 79.1698 10.7954C78.8364 10.1742 78.3705 9.68558 77.772 9.32952C77.1811 8.97346 76.4917 8.79543 75.7039 8.79543C74.863 8.79543 74.1243 8.99998 73.488 9.40907C72.8516 9.81058 72.3554 10.3409 71.9993 11C71.6508 11.6515 71.4728 12.3674 71.4652 13.1477V15.5682C71.4652 16.5833 71.6508 17.4545 72.022 18.1818C72.3933 18.9015 72.9122 19.4545 73.5789 19.8409C74.2455 20.2197 75.0258 20.4091 75.9198 20.4091C76.5183 20.4091 77.0599 20.3257 77.5448 20.1591C78.0296 19.9848 78.4501 19.731 78.8061 19.3977C79.1622 19.0644 79.4311 18.6515 79.613 18.1591L83.4539 18.5909C83.2114 19.606 82.7493 20.4924 82.0675 21.25C81.3933 22 80.5296 22.5833 79.4766 23C78.4236 23.4091 77.219 23.6136 75.863 23.6136ZM86.0062 -2.28882e-05H91.1653L98.0744 16.8636H98.3472L105.256 -2.28882e-05H110.415V23.2727H106.37V7.28407H106.154L99.7222 23.2045H96.6994L90.2676 7.24998H90.0517V23.2727H86.0062V-2.28882e-05ZM121.272 23.6136C119.522 23.6136 118.01 23.25 116.738 22.5227C115.472 21.7879 114.499 20.75 113.817 19.4091C113.135 18.0606 112.794 16.4735 112.794 14.6477C112.794 12.8523 113.135 11.2765 113.817 9.92043C114.507 8.5568 115.469 7.49619 116.704 6.73861C117.938 5.97346 119.389 5.59089 121.056 5.59089C122.132 5.59089 123.147 5.76513 124.101 6.11361C125.063 6.45452 125.912 6.98483 126.647 7.70452C127.389 8.42422 127.972 9.34089 128.397 10.4545C128.821 11.5606 129.033 12.8788 129.033 14.4091V15.6704H114.726V12.8977H125.09C125.082 12.1098 124.912 11.4091 124.579 10.7954C124.245 10.1742 123.779 9.68558 123.181 9.32952C122.59 8.97346 121.9 8.79543 121.113 8.79543C120.272 8.79543 119.533 8.99998 118.897 9.40907C118.26 9.81058 117.764 10.3409 117.408 11C117.06 11.6515 116.882 12.3674 116.874 13.1477V15.5682C116.874 16.5833 117.06 17.4545 117.431 18.1818C117.802 18.9015 118.321 19.4545 118.988 19.8409C119.654 20.2197 120.435 20.4091 121.329 20.4091C121.927 20.4091 122.469 20.3257 122.954 20.1591C123.438 19.9848 123.859 19.731 124.215 19.3977C124.571 19.0644 124.84 18.6515 125.022 18.1591L128.863 18.5909C128.62 19.606 128.158 20.4924 127.476 21.25C126.802 22 125.938 22.5833 124.885 23C123.832 23.4091 122.628 23.6136 121.272 23.6136Z" fill="#0069A8"/>
</svg>
